<svg id="Twotone" height="512" viewBox="0 0 64 64" width="512" xmlns="http://www.w3.org/2000/svg"><g id="Color_copy_2"><g><g><path d="m50 61h-38v-47c0-2.761 2.239-5 5-5h37v48c0 2.209-1.791 4-4 4z" fill="#fff"/><path d="m54 49v8c0 2.21-1.79 4-4 4h-38v-47c0-2.76 2.24-5 5-5h5v24c0 8.84 7.16 16 16 16z" fill="#cff09e"/><path d="m53.3 23.02c.02.33-.05.64-.19.89l.89 1.65v6.64l-1-.2-3 4-2.19-10.22c-.5.29-1.12.29-1.62 0l-2.19 10.22-3-4-5 1 4.89-9.09c-.14-.25-.21-.56-.19-.89.07-.98-.74-1.79-1.72-1.72-1.34.1-2.2-1.39-1.44-2.51.55-.81.25-1.92-.63-2.34-1.21-.59-1.21-2.31 0-2.9.88-.42 1.18-1.53.63-2.34-.53-.78-.27-1.73.38-2.21h16.08v12.57c-.45.31-.74.85-.7 1.45z" fill="#cff09e"/><path d="m46 57v-2h-42v2c0 2.209 1.791 4 4 4h42c-2.209 0-4-1.791-4-4z" fill="#fff"/><path d="m46.555 59h-36.555c-2.209 0-4-1.791-4-4h-2v2c0 2.209 1.791 4 4 4h42c-1.477 0-2.752-.809-3.445-2z" fill="#cff09e"/></g><g><g fill="#79bd9a"><path d="m52 35 3-4 5 1-7-13-4 2z"/><path d="m46 35-3-4-5 1 7-13 4 2z"/><path d="m50.446 3.906c.427.882 1.537 1.179 2.348.629 1.111-.754 2.602.107 2.505 1.446-.071.977.742 1.79 1.719 1.719 1.339-.097 2.2 1.394 1.446 2.505-.55.811-.252 1.921.629 2.348 1.208.586 1.208 2.307 0 2.892-.882.427-1.179 1.537-.629 2.348.754 1.111-.107 2.602-1.446 2.505-.977-.071-1.79.742-1.719 1.719.097 1.339-1.394 2.2-2.505 1.446-.811-.55-1.921-.253-2.348.629-.586 1.208-2.307 1.208-2.892 0-.427-.882-1.537-1.179-2.348-.629-1.111.754-2.602-.107-2.505-1.446.071-.977-.742-1.79-1.719-1.719-1.339.097-2.2-1.394-1.446-2.505.55-.811.253-1.921-.629-2.348-1.208-.586-1.208-2.307 0-2.892.882-.427 1.179-1.537.629-2.348-.754-1.111.107-2.602 1.446-2.505.977.071 1.79-.742 1.719-1.719-.097-1.339 1.394-2.2 2.505-1.446.811.55 1.921.253 2.348-.629.585-1.208 2.307-1.208 2.892 0z"/></g><circle cx="49" cy="14" fill="#a8dba8" r="6"/></g><g><path d="m42.851 43.456c.23.346.646.518 1.053.436.716-.144 1.348.487 1.203 1.203-.082.407.09.823.436 1.053.609.404.609 1.298 0 1.702-.346.23-.518.646-.436 1.053.144.716-.487 1.348-1.203 1.203-.407-.082-.823.09-1.053.436-.404.609-1.298.609-1.702 0-.23-.346-.646-.518-1.053-.436-.716.144-1.348-.487-1.204-1.203.082-.407-.09-.823-.436-1.053-.609-.404-.609-1.298 0-1.702.346-.23.518-.646.436-1.053-.144-.716.488-1.348 1.204-1.203.407.082.823-.09 1.053-.436.404-.608 1.298-.608 1.702 0z" fill="#79bd9a"/></g><g><g><path d="m24.261 23.952-1.932.518-1.992-4.663c-.415-.971.127-2.084 1.146-2.357 1.02-.273 2.045.42 2.171 1.468z" fill="#a8dba8"/></g><path d="m33.964 18.938c.552-.957.225-2.18-.732-2.732s-2.18-.225-2.732.732c-.957-.552-2.18-.225-2.732.732s-.225 2.18.732 2.732l-1.5 2.598 3.464 2 1.5-2.598c.957.552 2.18.225 2.732-.732s.225-2.18-.732-2.732z" fill="#79bd9a"/><circle cx="26" cy="22" fill="#a8dba8" r="3"/><path d="m30 27h-6c-2.209 0-4-1.791-4-4h14c0 2.209-1.791 4-4 4z" fill="#cff09e"/></g></g></g><g id="Stroke_Close_copy"><g fill="#3b8686"><path d="m18 33h16c.552 0 1-.447 1-1s-.448-1-1-1h-16c-.552 0-1 .447-1 1s.448 1 1 1z"/><path d="m18 38h24c.552 0 1-.447 1-1s-.448-1-1-1h-24c-.552 0-1 .447-1 1s.448 1 1 1z"/><path d="m35 41h-17c-.552 0-1 .447-1 1s.448 1 1 1h17c.552 0 1-.447 1-1s-.448-1-1-1z"/><path d="m33 46h-15c-.552 0-1 .447-1 1s.448 1 1 1h15c.552 0 1-.447 1-1s-.448-1-1-1z"/><path d="m19 23c0 2.757 2.243 5 5 5h12c.552 0 1-.447 1-1s-.448-1-1-1h-2.026c.635-.838 1.026-1.87 1.026-3 0-.043-.019-.08-.025-.122.224-.203.428-.433.587-.709.675-1.17.47-2.61-.408-3.55.112-.476.105-.974-.025-1.459-.208-.774-.704-1.421-1.397-1.821-.694-.4-1.502-.506-2.277-.3-.485.13-.92.373-1.276.707-1.252-.291-2.603.253-3.277 1.423-.161.279-.256.581-.32.889-.191-.027-.383-.058-.582-.058-.52 0-1.014.107-1.47.288-.186-.578-.555-1.083-1.066-1.429-.117-.08-.245-.137-.371-.197l.671-1.162c.276-.479.113-1.09-.366-1.366-.478-.276-1.09-.113-1.366.366l-.721 1.248-.563-.635c-.367-.414-.999-.452-1.412-.085-.413.366-.451.998-.084 1.411l.715.806c-.194.203-.368.425-.493.683-.347.714-.367 1.541-.056 2.271l.769 1.801h-.187c-.552 0-1 .447-1 1zm5 3c-1.304 0-2.416-.836-2.829-2h11.657c-.413 1.164-1.525 2-2.829 2zm-2.728-7.196c.055-.113.189-.313.471-.389.28-.076.497.031.601.101s.283.231.318.521l.079.658c-.337.475-.568 1.024-.672 1.62l-.812-1.902c-.114-.267-.04-.497.015-.609zm7.362-.634c.275-.478.887-.643 1.366-.366.478.275 1.089.112 1.365-.366.134-.231.35-.396.607-.466.258-.067.527-.032.759.101.231.134.396.349.465.606.069.258.034.527-.1.758-.133.23-.169.503-.1.76.068.256.236.475.466.607.478.275.642.889.367 1.366-.276.478-.888.643-1.367.366s-1.09-.113-1.365.366l-.055.098h-1.042c0-1.234-.573-2.325-1.454-3.059-.073-.259-.047-.536.088-.771zm-.634 3.83h-4c0-1.103.897-2 2-2s2 .897 2 2z"/><path d="m56.195 22.826c.077-.282.124-.575.101-.88-.018-.241.103-.4.176-.474.073-.073.232-.191.473-.177 1.004.075 1.942-.423 2.446-1.296s.466-1.934-.1-2.768c-.136-.199-.111-.397-.084-.497.027-.101.104-.284.322-.39.908-.438 1.471-1.336 1.471-2.344s-.563-1.906-1.471-2.347c-.217-.104-.294-.288-.321-.389-.027-.1-.052-.298.084-.497.566-.834.604-1.895.1-2.768s-1.438-1.372-2.445-1.296c-.238.017-.4-.104-.474-.177s-.194-.232-.176-.474c.073-1.005-.424-1.941-1.296-2.445-.875-.506-1.934-.467-2.768.099-.201.137-.398.109-.499.085-.1-.027-.284-.104-.389-.321 0-.001 0-.001 0-.001-.439-.906-1.338-1.469-2.345-1.469s-1.906.563-2.346 1.471c-.105.217-.289.294-.389.321-.1.024-.297.053-.499-.085-.833-.564-1.894-.604-2.768-.099-.872.504-1.369 1.44-1.296 2.445.018.241-.103.4-.176.474s-.242.192-.473.177c-1.006-.068-1.942.423-2.446 1.295v.001h-21.607c-3.309 0-6 2.691-6 6v40h-7c-.552 0-1 .447-1 1v2c0 2.757 2.243 5 5 5h42c2.757 0 5-2.243 5-5v-24.333l.422-.562 4.382.876c.383.08.77-.074 1-.386s.26-.728.077-1.068zm-15.471-11.043c.196-.732.064-1.512-.361-2.139-.193-.284-.08-.544-.023-.644.058-.099.242-.314.57-.302.761.057 1.497-.222 2.032-.757.536-.536.812-1.276.757-2.032-.026-.342.202-.512.301-.569.1-.058.361-.17.645.023.627.425 1.407.556 2.139.36.731-.196 1.34-.7 1.67-1.381.149-.309.431-.342.546-.342s.397.033.547.343c.331.682.939 1.185 1.67 1.381.731.195 1.511.064 2.139-.36.285-.194.546-.082.644-.024s.326.228.301.569c-.055.756.221 1.496.757 2.032.535.535 1.272.814 2.033.757.342-.027.512.203.569.302.057.1.169.36-.023.645-.425.627-.557 1.406-.36 2.139.196.731.7 1.341 1.381 1.67.309.15.342.432.342.546s-.033.396-.342.546c-.682.33-1.186.939-1.382 1.671s-.065 1.512.36 2.139c.194.284.081.544.024.644s-.233.324-.57.302c-.757-.062-1.497.222-2.032.757-.536.536-.812 1.276-.757 2.032.025.342-.203.512-.301.569s-.359.171-.645-.023c-.628-.426-1.408-.558-2.139-.36-.731.196-1.34.7-1.67 1.381-.15.309-.432.342-.546.342-.114 0-.396-.033-.546-.342-.33-.682-.939-1.186-1.67-1.382-.223-.06-.45-.089-.676-.089-.517 0-1.026.153-1.463.449-.285.194-.546.082-.645.024s-.326-.228-.301-.569c.055-.756-.221-1.496-.757-2.032-.535-.536-1.275-.815-2.033-.757-.345.012-.512-.203-.569-.302-.057-.1-.17-.36.022-.645.426-.627.558-1.406.361-2.139-.196-.731-.7-1.341-1.381-1.67-.309-.15-.342-.432-.342-.546s.033-.396.342-.546c.682-.33 1.185-.939 1.382-1.671zm2.467 12.686c.835.398 1.8.349 2.576-.176.2-.137.398-.109.499-.085.1.027.284.104.389.322.114.235.262.445.432.63l-1.603 7.483-1.684-2.243c-.23-.308-.616-.459-.996-.381l-2.916.583zm-35.191 35.531c-1.654 0-3-1.346-3-3v-1h40v1c0 1.125.374 2.164 1.002 3zm45-3c0 1.654-1.346 3-3 3s-3-1.346-3-3v-2c0-.553-.448-1-1-1h-33v-40c0-2.206 1.794-4 4-4h21.364c.075.267.182.528.344.768.135.2.11.397.084.497-.027.101-.104.284-.322.39-.907.439-1.47 1.337-1.47 2.345s.563 1.906 1.471 2.347c.217.104.294.288.321.389.026.1.051.297-.084.497-.566.835-.604 1.896-.1 2.769.504.872 1.439 1.369 2.445 1.295.244-.012.4.104.474.177s.194.232.176.474c-.022.305.024.597.101.88l-4.685 8.7c-.184.341-.154.757.077 1.068.231.312.621.466 1 .386l4.382-.876 2.622 3.494c.191.256.489.4.8.4.071 0 .143-.008.214-.023.383-.084.681-.384.764-.767l1.975-9.216c.016 0 .03.006.047.006.016 0 .031-.006.047-.007l1.975 9.217c.083.383.381.683.764.767.071.015.143.023.214.023.311 0 .609-.145.8-.4l.2-.267zm2.196-26.98c-.377-.078-.765.073-.996.381l-1.683 2.243-1.603-7.484c.17-.185.317-.395.432-.63.105-.217.289-.294.389-.321.1-.024.297-.052.499.085.775.526 1.741.575 2.576.176l3.302 6.133z"/><path d="m49 21c3.86 0 7-3.141 7-7s-3.14-7-7-7-7 3.141-7 7 3.14 7 7 7zm0-12c2.757 0 5 2.243 5 5s-2.243 5-5 5-5-2.243-5-5 2.243-5 5-5z"/><path d="m48 17c.21 0 .421-.065.6-.2l4-3c.442-.331.531-.958.2-1.399-.331-.442-.956-.53-1.4-.2l-3.306 2.479-1.387-1.387c-.391-.391-1.023-.391-1.414 0s-.391 1.023 0 1.414l2 2c.194.194.45.293.707.293z"/><path d="m46.087 45.294c.135-.666-.072-1.35-.552-1.829-.48-.48-1.164-.686-1.83-.553-.005.002-.017-.001-.022-.009v-.001c-.375-.565-1.004-.902-1.683-.902s-1.308.337-1.706.912c-.667-.131-1.35.073-1.83.553-.48.479-.687 1.163-.56 1.851-.566.374-.904 1.004-.904 1.684s.338 1.31.913 1.706c-.135.666.072 1.35.552 1.829.48.48 1.166.687 1.852.562.375.566 1.004.903 1.683.903s1.308-.337 1.706-.912c.667.131 1.35-.072 1.83-.553.48-.479.687-1.163.561-1.852.565-.374.903-1.003.903-1.683s-.338-1.309-.913-1.706zm-1.985 3.833c-.81-.163-1.627.176-2.12.864-.389-.587-1.041-.92-1.742-.92-.121 0-.244.01-.367.03.163-.808-.176-1.626-.862-2.12.686-.457 1.024-1.275.887-2.108.809.164 1.627-.176 2.102-.873.012 0 .013.002.018.01.458.688 1.274 1.028 2.109.889-.163.808.176 1.626.862 2.12-.686.457-1.025 1.275-.887 2.108z"/></g></g></svg>